<mxfile host="app.diagrams.net" modified="2020-12-10T04:00:27.194Z" agent="5.0 (Windows NT 10.0; Win64; x64) AppleWebKit/537.36 (KHTML, like Gecko) Chrome/87.0.4280.88 Safari/537.36" etag="g-m1np54Kr5v0EwC6KtU" version="14.0.0" type="github">
  <diagram id="4dkKXYNTAWK5__7AtTli" name="Page-1">
    <mxGraphModel dx="4890" dy="3346" grid="1" gridSize="10" guides="1" tooltips="1" connect="1" arrows="1" fold="1" page="1" pageScale="1" pageWidth="827" pageHeight="1169" math="0" shadow="0">
      <root>
        <mxCell id="0" />
        <mxCell id="1" parent="0" />
        <mxCell id="rxXV3Al38AFxh0UGhGaE-33" style="edgeStyle=orthogonalEdgeStyle;curved=1;rounded=0;orthogonalLoop=1;jettySize=auto;html=1;exitX=0;exitY=1;exitDx=0;exitDy=0;entryX=0.5;entryY=0;entryDx=0;entryDy=0;fontSize=22;" edge="1" parent="1" source="rxXV3Al38AFxh0UGhGaE-1" target="rxXV3Al38AFxh0UGhGaE-27">
          <mxGeometry relative="1" as="geometry" />
        </mxCell>
        <mxCell id="rxXV3Al38AFxh0UGhGaE-34" style="edgeStyle=orthogonalEdgeStyle;curved=1;rounded=0;orthogonalLoop=1;jettySize=auto;html=1;exitX=0.5;exitY=1;exitDx=0;exitDy=0;fontSize=22;" edge="1" parent="1" source="rxXV3Al38AFxh0UGhGaE-1" target="rxXV3Al38AFxh0UGhGaE-25">
          <mxGeometry relative="1" as="geometry" />
        </mxCell>
        <mxCell id="rxXV3Al38AFxh0UGhGaE-35" style="edgeStyle=orthogonalEdgeStyle;curved=1;rounded=0;orthogonalLoop=1;jettySize=auto;html=1;exitX=1;exitY=1;exitDx=0;exitDy=0;entryX=0.5;entryY=0;entryDx=0;entryDy=0;fontSize=22;" edge="1" parent="1" source="rxXV3Al38AFxh0UGhGaE-1" target="rxXV3Al38AFxh0UGhGaE-28">
          <mxGeometry relative="1" as="geometry" />
        </mxCell>
        <mxCell id="rxXV3Al38AFxh0UGhGaE-1" value="活动&amp;amp;促销&amp;amp;广告" style="rounded=1;whiteSpace=wrap;html=1;fontSize=22;" vertex="1" parent="1">
          <mxGeometry x="670" y="-290" width="120" height="60" as="geometry" />
        </mxCell>
        <mxCell id="rxXV3Al38AFxh0UGhGaE-48" style="edgeStyle=orthogonalEdgeStyle;curved=1;rounded=0;orthogonalLoop=1;jettySize=auto;html=1;exitX=0;exitY=1;exitDx=0;exitDy=0;entryX=0.5;entryY=0;entryDx=0;entryDy=0;fontSize=22;" edge="1" parent="1" source="rxXV3Al38AFxh0UGhGaE-25" target="rxXV3Al38AFxh0UGhGaE-40">
          <mxGeometry relative="1" as="geometry" />
        </mxCell>
        <mxCell id="rxXV3Al38AFxh0UGhGaE-49" style="edgeStyle=orthogonalEdgeStyle;curved=1;rounded=0;orthogonalLoop=1;jettySize=auto;html=1;exitX=0.25;exitY=1;exitDx=0;exitDy=0;entryX=0.5;entryY=0;entryDx=0;entryDy=0;fontSize=22;" edge="1" parent="1" source="rxXV3Al38AFxh0UGhGaE-25" target="rxXV3Al38AFxh0UGhGaE-41">
          <mxGeometry relative="1" as="geometry" />
        </mxCell>
        <mxCell id="rxXV3Al38AFxh0UGhGaE-51" style="edgeStyle=orthogonalEdgeStyle;curved=1;rounded=0;orthogonalLoop=1;jettySize=auto;html=1;exitX=0.75;exitY=1;exitDx=0;exitDy=0;fontSize=22;" edge="1" parent="1" source="rxXV3Al38AFxh0UGhGaE-25" target="rxXV3Al38AFxh0UGhGaE-42">
          <mxGeometry relative="1" as="geometry" />
        </mxCell>
        <mxCell id="rxXV3Al38AFxh0UGhGaE-52" style="edgeStyle=orthogonalEdgeStyle;curved=1;rounded=0;orthogonalLoop=1;jettySize=auto;html=1;exitX=1;exitY=1;exitDx=0;exitDy=0;entryX=0.5;entryY=0;entryDx=0;entryDy=0;fontSize=22;" edge="1" parent="1" source="rxXV3Al38AFxh0UGhGaE-25" target="rxXV3Al38AFxh0UGhGaE-43">
          <mxGeometry relative="1" as="geometry" />
        </mxCell>
        <mxCell id="rxXV3Al38AFxh0UGhGaE-25" value="好吃" style="rounded=1;whiteSpace=wrap;html=1;fontSize=22;" vertex="1" parent="1">
          <mxGeometry x="670" y="190" width="120" height="60" as="geometry" />
        </mxCell>
        <mxCell id="rxXV3Al38AFxh0UGhGaE-36" style="edgeStyle=orthogonalEdgeStyle;curved=1;rounded=0;orthogonalLoop=1;jettySize=auto;html=1;exitX=0;exitY=1;exitDx=0;exitDy=0;entryX=0.5;entryY=0;entryDx=0;entryDy=0;fontSize=22;" edge="1" parent="1" source="rxXV3Al38AFxh0UGhGaE-27" target="rxXV3Al38AFxh0UGhGaE-29">
          <mxGeometry relative="1" as="geometry" />
        </mxCell>
        <mxCell id="rxXV3Al38AFxh0UGhGaE-37" style="edgeStyle=orthogonalEdgeStyle;curved=1;rounded=0;orthogonalLoop=1;jettySize=auto;html=1;exitX=0.25;exitY=1;exitDx=0;exitDy=0;fontSize=22;" edge="1" parent="1" source="rxXV3Al38AFxh0UGhGaE-27" target="rxXV3Al38AFxh0UGhGaE-30">
          <mxGeometry relative="1" as="geometry" />
        </mxCell>
        <mxCell id="rxXV3Al38AFxh0UGhGaE-38" style="edgeStyle=orthogonalEdgeStyle;curved=1;rounded=0;orthogonalLoop=1;jettySize=auto;html=1;exitX=0.75;exitY=1;exitDx=0;exitDy=0;entryX=0.25;entryY=0;entryDx=0;entryDy=0;fontSize=22;" edge="1" parent="1" source="rxXV3Al38AFxh0UGhGaE-27" target="rxXV3Al38AFxh0UGhGaE-31">
          <mxGeometry relative="1" as="geometry" />
        </mxCell>
        <mxCell id="rxXV3Al38AFxh0UGhGaE-39" style="edgeStyle=orthogonalEdgeStyle;curved=1;rounded=0;orthogonalLoop=1;jettySize=auto;html=1;exitX=1;exitY=1;exitDx=0;exitDy=0;entryX=0.25;entryY=0;entryDx=0;entryDy=0;fontSize=22;" edge="1" parent="1" source="rxXV3Al38AFxh0UGhGaE-27" target="rxXV3Al38AFxh0UGhGaE-32">
          <mxGeometry relative="1" as="geometry" />
        </mxCell>
        <mxCell id="rxXV3Al38AFxh0UGhGaE-27" value="占便宜" style="rounded=1;whiteSpace=wrap;html=1;fontSize=22;" vertex="1" parent="1">
          <mxGeometry x="40" y="190" width="120" height="60" as="geometry" />
        </mxCell>
        <mxCell id="rxXV3Al38AFxh0UGhGaE-53" style="edgeStyle=orthogonalEdgeStyle;curved=1;rounded=0;orthogonalLoop=1;jettySize=auto;html=1;exitX=0;exitY=1;exitDx=0;exitDy=0;fontSize=22;" edge="1" parent="1" source="rxXV3Al38AFxh0UGhGaE-28" target="rxXV3Al38AFxh0UGhGaE-44">
          <mxGeometry relative="1" as="geometry" />
        </mxCell>
        <mxCell id="rxXV3Al38AFxh0UGhGaE-54" style="edgeStyle=orthogonalEdgeStyle;curved=1;rounded=0;orthogonalLoop=1;jettySize=auto;html=1;exitX=0.25;exitY=1;exitDx=0;exitDy=0;entryX=0.5;entryY=0;entryDx=0;entryDy=0;fontSize=22;" edge="1" parent="1" source="rxXV3Al38AFxh0UGhGaE-28" target="rxXV3Al38AFxh0UGhGaE-45">
          <mxGeometry relative="1" as="geometry" />
        </mxCell>
        <mxCell id="rxXV3Al38AFxh0UGhGaE-55" style="edgeStyle=orthogonalEdgeStyle;curved=1;rounded=0;orthogonalLoop=1;jettySize=auto;html=1;exitX=0.75;exitY=1;exitDx=0;exitDy=0;entryX=0.5;entryY=0;entryDx=0;entryDy=0;fontSize=22;" edge="1" parent="1" source="rxXV3Al38AFxh0UGhGaE-28" target="rxXV3Al38AFxh0UGhGaE-46">
          <mxGeometry relative="1" as="geometry" />
        </mxCell>
        <mxCell id="rxXV3Al38AFxh0UGhGaE-56" style="edgeStyle=orthogonalEdgeStyle;curved=1;rounded=0;orthogonalLoop=1;jettySize=auto;html=1;exitX=1;exitY=1;exitDx=0;exitDy=0;entryX=0.5;entryY=0;entryDx=0;entryDy=0;fontSize=22;" edge="1" parent="1" source="rxXV3Al38AFxh0UGhGaE-28" target="rxXV3Al38AFxh0UGhGaE-47">
          <mxGeometry relative="1" as="geometry" />
        </mxCell>
        <mxCell id="rxXV3Al38AFxh0UGhGaE-28" value="社交" style="rounded=1;whiteSpace=wrap;html=1;fontSize=22;" vertex="1" parent="1">
          <mxGeometry x="1290" y="200" width="120" height="60" as="geometry" />
        </mxCell>
        <mxCell id="rxXV3Al38AFxh0UGhGaE-66" style="edgeStyle=orthogonalEdgeStyle;curved=1;rounded=0;orthogonalLoop=1;jettySize=auto;html=1;exitX=0.5;exitY=1;exitDx=0;exitDy=0;entryX=0;entryY=0;entryDx=0;entryDy=30;entryPerimeter=0;strokeWidth=2;fontSize=33;dashed=1;" edge="1" parent="1" source="rxXV3Al38AFxh0UGhGaE-29" target="rxXV3Al38AFxh0UGhGaE-60">
          <mxGeometry relative="1" as="geometry" />
        </mxCell>
        <mxCell id="rxXV3Al38AFxh0UGhGaE-29" value="占便宜" style="rounded=1;whiteSpace=wrap;html=1;fontSize=22;" vertex="1" parent="1">
          <mxGeometry x="-160" y="630" width="120" height="60" as="geometry" />
        </mxCell>
        <mxCell id="rxXV3Al38AFxh0UGhGaE-69" style="edgeStyle=orthogonalEdgeStyle;curved=1;rounded=0;orthogonalLoop=1;jettySize=auto;html=1;exitX=0.25;exitY=1;exitDx=0;exitDy=0;entryX=0;entryY=0;entryDx=30;entryDy=0;entryPerimeter=0;dashed=1;strokeWidth=2;fontSize=33;" edge="1" parent="1" source="rxXV3Al38AFxh0UGhGaE-30" target="rxXV3Al38AFxh0UGhGaE-61">
          <mxGeometry relative="1" as="geometry" />
        </mxCell>
        <mxCell id="rxXV3Al38AFxh0UGhGaE-30" value="好吃" style="rounded=1;whiteSpace=wrap;html=1;fontSize=22;" vertex="1" parent="1">
          <mxGeometry x="-10" y="630" width="120" height="60" as="geometry" />
        </mxCell>
        <mxCell id="rxXV3Al38AFxh0UGhGaE-73" style="edgeStyle=orthogonalEdgeStyle;curved=1;rounded=0;orthogonalLoop=1;jettySize=auto;html=1;exitX=0.25;exitY=1;exitDx=0;exitDy=0;entryX=0;entryY=0;entryDx=30;entryDy=0;entryPerimeter=0;dashed=1;strokeWidth=2;fontSize=33;" edge="1" parent="1" source="rxXV3Al38AFxh0UGhGaE-31" target="rxXV3Al38AFxh0UGhGaE-63">
          <mxGeometry relative="1" as="geometry" />
        </mxCell>
        <mxCell id="rxXV3Al38AFxh0UGhGaE-31" value="社交" style="rounded=1;whiteSpace=wrap;html=1;fontSize=22;" vertex="1" parent="1">
          <mxGeometry x="140" y="630" width="120" height="60" as="geometry" />
        </mxCell>
        <mxCell id="rxXV3Al38AFxh0UGhGaE-72" style="edgeStyle=orthogonalEdgeStyle;curved=1;rounded=0;orthogonalLoop=1;jettySize=auto;html=1;exitX=0.5;exitY=1;exitDx=0;exitDy=0;entryX=0;entryY=0;entryDx=0;entryDy=30;entryPerimeter=0;dashed=1;strokeWidth=2;fontSize=33;" edge="1" parent="1" source="rxXV3Al38AFxh0UGhGaE-32" target="rxXV3Al38AFxh0UGhGaE-64">
          <mxGeometry relative="1" as="geometry" />
        </mxCell>
        <mxCell id="rxXV3Al38AFxh0UGhGaE-32" value="性价比" style="rounded=1;whiteSpace=wrap;html=1;fontSize=22;" vertex="1" parent="1">
          <mxGeometry x="294" y="630" width="120" height="60" as="geometry" />
        </mxCell>
        <mxCell id="rxXV3Al38AFxh0UGhGaE-67" style="edgeStyle=orthogonalEdgeStyle;curved=1;rounded=0;orthogonalLoop=1;jettySize=auto;html=1;exitX=0.5;exitY=1;exitDx=0;exitDy=0;dashed=1;strokeWidth=2;fontSize=33;" edge="1" parent="1" source="rxXV3Al38AFxh0UGhGaE-40" target="rxXV3Al38AFxh0UGhGaE-60">
          <mxGeometry relative="1" as="geometry" />
        </mxCell>
        <mxCell id="rxXV3Al38AFxh0UGhGaE-40" value="占便宜" style="rounded=1;whiteSpace=wrap;html=1;fontSize=22;" vertex="1" parent="1">
          <mxGeometry x="460" y="630" width="120" height="60" as="geometry" />
        </mxCell>
        <mxCell id="rxXV3Al38AFxh0UGhGaE-70" style="edgeStyle=orthogonalEdgeStyle;curved=1;rounded=0;orthogonalLoop=1;jettySize=auto;html=1;exitX=0.5;exitY=1;exitDx=0;exitDy=0;dashed=1;strokeWidth=2;fontSize=33;" edge="1" parent="1" source="rxXV3Al38AFxh0UGhGaE-41" target="rxXV3Al38AFxh0UGhGaE-61">
          <mxGeometry relative="1" as="geometry" />
        </mxCell>
        <mxCell id="rxXV3Al38AFxh0UGhGaE-41" value="好吃" style="rounded=1;whiteSpace=wrap;html=1;fontSize=22;" vertex="1" parent="1">
          <mxGeometry x="610" y="630" width="120" height="60" as="geometry" />
        </mxCell>
        <mxCell id="rxXV3Al38AFxh0UGhGaE-74" style="edgeStyle=orthogonalEdgeStyle;curved=1;rounded=0;orthogonalLoop=1;jettySize=auto;html=1;exitX=0.5;exitY=1;exitDx=0;exitDy=0;entryX=0.5;entryY=0;entryDx=0;entryDy=0;entryPerimeter=0;dashed=1;strokeWidth=2;fontSize=33;" edge="1" parent="1" source="rxXV3Al38AFxh0UGhGaE-42" target="rxXV3Al38AFxh0UGhGaE-63">
          <mxGeometry relative="1" as="geometry" />
        </mxCell>
        <mxCell id="rxXV3Al38AFxh0UGhGaE-42" value="社交" style="rounded=1;whiteSpace=wrap;html=1;fontSize=22;" vertex="1" parent="1">
          <mxGeometry x="760" y="630" width="120" height="60" as="geometry" />
        </mxCell>
        <mxCell id="rxXV3Al38AFxh0UGhGaE-75" style="edgeStyle=orthogonalEdgeStyle;curved=1;rounded=0;orthogonalLoop=1;jettySize=auto;html=1;exitX=0.5;exitY=1;exitDx=0;exitDy=0;entryX=0;entryY=0;entryDx=125;entryDy=0;entryPerimeter=0;dashed=1;strokeWidth=2;fontSize=33;" edge="1" parent="1" source="rxXV3Al38AFxh0UGhGaE-43" target="rxXV3Al38AFxh0UGhGaE-64">
          <mxGeometry relative="1" as="geometry" />
        </mxCell>
        <mxCell id="rxXV3Al38AFxh0UGhGaE-43" value="性价比" style="rounded=1;whiteSpace=wrap;html=1;fontSize=22;" vertex="1" parent="1">
          <mxGeometry x="914" y="630" width="120" height="60" as="geometry" />
        </mxCell>
        <mxCell id="rxXV3Al38AFxh0UGhGaE-68" style="edgeStyle=orthogonalEdgeStyle;curved=1;rounded=0;orthogonalLoop=1;jettySize=auto;html=1;exitX=0.25;exitY=1;exitDx=0;exitDy=0;entryX=1;entryY=0;entryDx=0;entryDy=0;entryPerimeter=0;dashed=1;strokeWidth=2;fontSize=33;" edge="1" parent="1" source="rxXV3Al38AFxh0UGhGaE-44" target="rxXV3Al38AFxh0UGhGaE-60">
          <mxGeometry relative="1" as="geometry" />
        </mxCell>
        <mxCell id="rxXV3Al38AFxh0UGhGaE-44" value="占便宜" style="rounded=1;whiteSpace=wrap;html=1;fontSize=22;" vertex="1" parent="1">
          <mxGeometry x="1080" y="630" width="120" height="60" as="geometry" />
        </mxCell>
        <mxCell id="rxXV3Al38AFxh0UGhGaE-71" style="edgeStyle=orthogonalEdgeStyle;curved=1;rounded=0;orthogonalLoop=1;jettySize=auto;html=1;exitX=0.25;exitY=1;exitDx=0;exitDy=0;entryX=1;entryY=0;entryDx=0;entryDy=0;entryPerimeter=0;dashed=1;strokeWidth=2;fontSize=33;" edge="1" parent="1" source="rxXV3Al38AFxh0UGhGaE-45" target="rxXV3Al38AFxh0UGhGaE-61">
          <mxGeometry relative="1" as="geometry" />
        </mxCell>
        <mxCell id="rxXV3Al38AFxh0UGhGaE-76" style="edgeStyle=orthogonalEdgeStyle;curved=1;rounded=0;orthogonalLoop=1;jettySize=auto;html=1;exitX=0.25;exitY=1;exitDx=0;exitDy=0;entryX=1;entryY=0;entryDx=0;entryDy=0;entryPerimeter=0;dashed=1;strokeWidth=2;fontSize=33;" edge="1" parent="1" source="rxXV3Al38AFxh0UGhGaE-45" target="rxXV3Al38AFxh0UGhGaE-61">
          <mxGeometry relative="1" as="geometry" />
        </mxCell>
        <mxCell id="rxXV3Al38AFxh0UGhGaE-45" value="好吃" style="rounded=1;whiteSpace=wrap;html=1;fontSize=22;" vertex="1" parent="1">
          <mxGeometry x="1230" y="630" width="120" height="60" as="geometry" />
        </mxCell>
        <mxCell id="rxXV3Al38AFxh0UGhGaE-77" style="edgeStyle=orthogonalEdgeStyle;curved=1;rounded=0;orthogonalLoop=1;jettySize=auto;html=1;exitX=0.5;exitY=1;exitDx=0;exitDy=0;entryX=1;entryY=0;entryDx=0;entryDy=0;entryPerimeter=0;dashed=1;strokeWidth=2;fontSize=33;" edge="1" parent="1" source="rxXV3Al38AFxh0UGhGaE-46" target="rxXV3Al38AFxh0UGhGaE-63">
          <mxGeometry relative="1" as="geometry" />
        </mxCell>
        <mxCell id="rxXV3Al38AFxh0UGhGaE-46" value="社交" style="rounded=1;whiteSpace=wrap;html=1;fontSize=22;" vertex="1" parent="1">
          <mxGeometry x="1380" y="630" width="120" height="60" as="geometry" />
        </mxCell>
        <mxCell id="rxXV3Al38AFxh0UGhGaE-78" style="edgeStyle=orthogonalEdgeStyle;curved=1;rounded=0;orthogonalLoop=1;jettySize=auto;html=1;exitX=0.25;exitY=1;exitDx=0;exitDy=0;entryX=1;entryY=0;entryDx=0;entryDy=0;entryPerimeter=0;dashed=1;strokeWidth=2;fontSize=33;" edge="1" parent="1" source="rxXV3Al38AFxh0UGhGaE-47" target="rxXV3Al38AFxh0UGhGaE-64">
          <mxGeometry relative="1" as="geometry" />
        </mxCell>
        <mxCell id="rxXV3Al38AFxh0UGhGaE-47" value="性价比" style="rounded=1;whiteSpace=wrap;html=1;fontSize=22;" vertex="1" parent="1">
          <mxGeometry x="1534" y="630" width="120" height="60" as="geometry" />
        </mxCell>
        <mxCell id="rxXV3Al38AFxh0UGhGaE-57" value="" style="endArrow=none;dashed=1;html=1;dashPattern=1 3;strokeWidth=7;fontSize=33;fontStyle=1" edge="1" parent="1">
          <mxGeometry width="50" height="50" relative="1" as="geometry">
            <mxPoint x="-190" y="100" as="sourcePoint" />
            <mxPoint x="1700" y="100" as="targetPoint" />
          </mxGeometry>
        </mxCell>
        <mxCell id="rxXV3Al38AFxh0UGhGaE-58" value="" style="endArrow=none;dashed=1;html=1;dashPattern=1 3;strokeWidth=7;fontSize=33;fontStyle=1" edge="1" parent="1">
          <mxGeometry width="50" height="50" relative="1" as="geometry">
            <mxPoint x="-190" y="410" as="sourcePoint" />
            <mxPoint x="1700" y="410" as="targetPoint" />
          </mxGeometry>
        </mxCell>
        <mxCell id="rxXV3Al38AFxh0UGhGaE-60" value="占便宜" style="shape=card;whiteSpace=wrap;html=1;fontSize=33;" vertex="1" parent="1">
          <mxGeometry x="60" y="990" width="220" height="270" as="geometry" />
        </mxCell>
        <mxCell id="rxXV3Al38AFxh0UGhGaE-61" value="好吃（惊艳）" style="shape=card;whiteSpace=wrap;html=1;fontSize=33;" vertex="1" parent="1">
          <mxGeometry x="370" y="1000" width="220" height="270" as="geometry" />
        </mxCell>
        <mxCell id="rxXV3Al38AFxh0UGhGaE-63" value="社交" style="shape=card;whiteSpace=wrap;html=1;fontSize=33;" vertex="1" parent="1">
          <mxGeometry x="680" y="1000" width="220" height="270" as="geometry" />
        </mxCell>
        <mxCell id="rxXV3Al38AFxh0UGhGaE-64" value="性价比" style="shape=card;whiteSpace=wrap;html=1;fontSize=33;" vertex="1" parent="1">
          <mxGeometry x="1021" y="1000" width="220" height="270" as="geometry" />
        </mxCell>
        <mxCell id="rxXV3Al38AFxh0UGhGaE-65" value="" style="endArrow=none;dashed=1;html=1;dashPattern=1 3;strokeWidth=7;fontSize=33;fontStyle=1" edge="1" parent="1">
          <mxGeometry width="50" height="50" relative="1" as="geometry">
            <mxPoint x="-210" y="1400" as="sourcePoint" />
            <mxPoint x="1680" y="1400" as="targetPoint" />
          </mxGeometry>
        </mxCell>
      </root>
    </mxGraphModel>
  </diagram>
</mxfile>
